<?xml version="1.0" encoding="utf-8"?>
<!-- Generator: Adobe Illustrator 22.0.1, SVG Export Plug-In . SVG Version: 6.00 Build 0)  -->
<svg version="1.1" id="Layer_1" xmlns="http://www.w3.org/2000/svg" xmlns:xlink="http://www.w3.org/1999/xlink" x="0px" y="0px"
	 viewBox="0 0 36 36" style="enable-background:new 0 0 36 36;" xml:space="preserve">
<style type="text/css">
	.st0{fill:url(#SVGID_1_);}
	.st1{fill:#FFFFFF;}
</style>
<linearGradient id="SVGID_1_" gradientUnits="userSpaceOnUse" x1="31.8052" y1="24.1154" x2="3.3052" y2="11.4904">
	<stop  offset="0" style="stop-color:#3671A8"/>
	<stop  offset="1" style="stop-color:#295F91"/>
</linearGradient>
<circle class="st0" cx="18" cy="18" r="18"/>
<g>
	<path class="st1" d="M23.7,9.5c0.3-0.7,0.9-1.2,1.9-1.2c0.8,0,1.1,0.5,1.1,1.1c0,0.2-0.1,0.5-0.1,0.7l-7.9,16.1
		c-0.6,1.1-2,2.1-3.3,2.1c-1.5,0-2.4-1-2.5-2.2l-1-16c0-0.8,0.8-1.7,1.7-1.7c1,0,1.3,0.6,1.3,1.2l1,15.2c0,0.1,0.1,0.2,0.1,0.2
		c0.1,0,0.1-0.1,0.2-0.2L23.7,9.5z"/>
</g>
</svg>
